<svg xmlns="http://www.w3.org/2000/svg" viewBox="0 0 287.66 125.33"><svg xmlns="http://www.w3.org/2000/svg" xmlns:xlink="http://www.w3.org/1999/xlink" viewBox="0 0 86.08 33.02" height="33.02" width="86.08" x="100.79" y="0"><defs><style>.cls-1{fill:url(#Sfumatura_senza_nome_27);}.cls-2{fill:url(#Sfumatura_senza_nome_194);opacity:.25;}.cls-3{fill:url(#Sfumatura_senza_nome_81);mix-blend-mode:color-burn;}.cls-4{fill:url(#linear-gradient-2);}.cls-5{fill:url(#linear-gradient-8);mix-blend-mode:soft-light;opacity:.17;}.cls-6{fill:url(#linear-gradient-6);}.cls-7{isolation:isolate;}.cls-8{fill:url(#linear-gradient-5);}.cls-9{fill:url(#linear-gradient-3);opacity:.43;}.cls-10{fill:url(#linear-gradient-7);}.cls-11{fill:url(#Sfumatura_senza_nome_45);}.cls-12{fill:url(#linear-gradient);}.cls-13{fill:#231f20;}.cls-14{fill:url(#linear-gradient-4);}.cls-15{fill:#0b72ba;}</style><linearGradient id="linear-gradient" x1="-418.79" y1="745.74" x2="-400.58" y2="745.74" gradientTransform="translate(724.94 -498.26) rotate(24.64)" gradientUnits="userSpaceOnUse"><stop offset="0" stop-color="#292562" /><stop offset=".5" stop-color="#2075bc" /><stop offset=".66" stop-color="#2072b9" /><stop offset=".78" stop-color="#2268b2" /><stop offset=".88" stop-color="#2458a6" /><stop offset=".98" stop-color="#284295" /><stop offset="1" stop-color="#2a3c90" /></linearGradient><linearGradient id="linear-gradient-2" x1="-418.82" y1="745.76" x2="-400.62" y2="745.76" gradientTransform="translate(724.94 -498.26) rotate(24.64)" gradientUnits="userSpaceOnUse"><stop offset="0" stop-color="#292562" /><stop offset=".01" stop-color="#292563" stop-opacity=".98" /><stop offset=".2" stop-color="#292d73" stop-opacity=".63" /><stop offset=".39" stop-color="#29337f" stop-opacity=".35" /><stop offset=".59" stop-color="#293888" stop-opacity=".16" /><stop offset=".79" stop-color="#293b8e" stop-opacity=".04" /><stop offset="1" stop-color="#2a3c90" stop-opacity="0" /></linearGradient><linearGradient id="linear-gradient-3" x1="-418.79" y1="745.99" x2="-402.95" y2="745.99" gradientTransform="translate(724.94 -498.26) rotate(24.64)" gradientUnits="userSpaceOnUse"><stop offset="0" stop-color="#292562" stop-opacity="0" /><stop offset=".02" stop-color="#292664" stop-opacity=".06" /><stop offset=".1" stop-color="#292c70" stop-opacity=".31" /><stop offset=".2" stop-color="#29317a" stop-opacity=".53" /><stop offset=".3" stop-color="#293582" stop-opacity=".7" /><stop offset=".41" stop-color="#293888" stop-opacity=".83" /><stop offset=".54" stop-color="#293a8c" stop-opacity=".93" /><stop offset=".7" stop-color="#293b8f" stop-opacity=".98" /><stop offset="1" stop-color="#2a3c90" /></linearGradient><linearGradient id="Sfumatura_senza_nome_27" x1="-420.04" y1="740.52" x2="-401.51" y2="740.52" gradientTransform="translate(724.94 -498.26) rotate(24.64)" gradientUnits="userSpaceOnUse"><stop offset="0" stop-color="#2075bc" /><stop offset=".5" stop-color="#2bace2" /><stop offset="1" stop-color="#62c8d5" /></linearGradient><linearGradient id="Sfumatura_senza_nome_45" x1="-408.95" y1="760.79" x2="-408.95" y2="753.39" gradientTransform="translate(724.94 -498.26) rotate(24.64)" gradientUnits="userSpaceOnUse"><stop offset="0" stop-color="#da1a5d" /><stop offset=".5" stop-color="#9e2064" /><stop offset="1" stop-color="#9e2064" /></linearGradient><linearGradient id="linear-gradient-4" x1="-408.91" y1="760.79" x2="-408.91" y2="753.39" gradientTransform="translate(724.94 -498.26) rotate(24.64)" gradientUnits="userSpaceOnUse"><stop offset="0" stop-color="#6e6f72" /><stop offset=".97" stop-color="#424143" /><stop offset="1" stop-color="#351840" /></linearGradient><linearGradient id="linear-gradient-5" x1="-411.94" y1="752.53" x2="-398.9" y2="752.53" gradientTransform="translate(724.94 -498.26) rotate(24.64)" gradientUnits="userSpaceOnUse"><stop offset="0" stop-color="#6e6f72" /><stop offset=".5" stop-color="#818285" /><stop offset="1" stop-color="#6e6f72" /></linearGradient><linearGradient id="linear-gradient-6" x1="-411.94" y1="752.53" x2="-398.88" y2="752.53" gradientTransform="translate(724.94 -498.26) rotate(24.64)" gradientUnits="userSpaceOnUse"><stop offset="0" stop-color="#818285" stop-opacity="0" /><stop offset=".04" stop-color="#848588" stop-opacity=".19" /><stop offset=".11" stop-color="#888a8d" stop-opacity=".44" /><stop offset=".18" stop-color="#8c8e91" stop-opacity=".64" /><stop offset=".25" stop-color="#8f9194" stop-opacity=".8" /><stop offset=".32" stop-color="#919396" stop-opacity=".91" /><stop offset=".4" stop-color="#929497" stop-opacity=".98" /><stop offset=".5" stop-color="#939598" /><stop offset=".58" stop-color="#929497" stop-opacity=".97" /><stop offset=".66" stop-color="#919295" stop-opacity=".89" /><stop offset=".74" stop-color="#8e9093" stop-opacity=".75" /><stop offset=".83" stop-color="#8b8c8f" stop-opacity=".56" /><stop offset=".91" stop-color="#86878a" stop-opacity=".31" /><stop offset="1" stop-color="#818285" stop-opacity=".01" /><stop offset="1" stop-color="#818285" stop-opacity="0" /></linearGradient><linearGradient id="Sfumatura_senza_nome_81" x1="-420.04" y1="740.52" x2="-401.74" y2="740.52" gradientTransform="translate(724.94 -498.26) rotate(24.64)" gradientUnits="userSpaceOnUse"><stop offset="0" stop-color="#d9e7bc" /><stop offset="1" stop-color="#62c8d5" /></linearGradient><linearGradient id="Sfumatura_senza_nome_194" x1="-415.12" y1="748.48" x2="-405.41" y2="731.66" gradientTransform="translate(724.94 -498.26) rotate(24.64)" gradientUnits="userSpaceOnUse"><stop offset="0" stop-color="#2075bc" stop-opacity="0" /><stop offset=".06" stop-color="#488dc5" stop-opacity=".18" /><stop offset=".15" stop-color="#7fafd2" stop-opacity=".43" /><stop offset=".24" stop-color="#accbdd" stop-opacity=".63" /><stop offset=".32" stop-color="#d0e1e5" stop-opacity=".79" /><stop offset=".39" stop-color="#e9f1eb" stop-opacity=".91" /><stop offset=".45" stop-color="#f9faef" stop-opacity=".98" /><stop offset=".5" stop-color="#fffef1" /><stop offset=".59" stop-color="#fdfdf0" stop-opacity=".99" /><stop offset=".66" stop-color="#f7fbef" stop-opacity=".95" /><stop offset=".72" stop-color="#edf8ed" stop-opacity=".89" /><stop offset=".77" stop-color="#dff3eb" stop-opacity=".8" /><stop offset=".82" stop-color="#cdede8" stop-opacity=".69" /><stop offset=".87" stop-color="#b7e5e4" stop-opacity=".55" /><stop offset=".92" stop-color="#9ddcdf" stop-opacity=".38" /><stop offset=".96" stop-color="#80d2da" stop-opacity=".19" /><stop offset="1" stop-color="#62c8d5" stop-opacity="0" /></linearGradient><linearGradient id="linear-gradient-7" x1="-411.94" y1="752.53" x2="-399.57" y2="752.53" gradientTransform="translate(724.94 -498.26) rotate(24.64)" gradientUnits="userSpaceOnUse"><stop offset="0" stop-color="#818285" stop-opacity="0" /><stop offset=".06" stop-color="#7f8083" stop-opacity=".09" /><stop offset=".36" stop-color="#77787b" stop-opacity=".48" /><stop offset=".63" stop-color="#727376" stop-opacity=".76" /><stop offset=".85" stop-color="#6f7073" stop-opacity=".94" /><stop offset="1" stop-color="#6e6f72" /></linearGradient><linearGradient id="linear-gradient-8" x1="-411.43" y1="752.56" x2="-398.87" y2="752.56" gradientTransform="translate(724.94 -498.26) rotate(24.64)" gradientUnits="userSpaceOnUse"><stop offset="0" stop-color="#939598" stop-opacity="0" /><stop offset=".03" stop-color="#a1a3a6" stop-opacity=".14" /><stop offset=".08" stop-color="#b7b8ba" stop-opacity=".34" /><stop offset=".13" stop-color="#cacbcd" stop-opacity=".51" /><stop offset=".18" stop-color="#dadbdc" stop-opacity=".66" /><stop offset=".24" stop-color="#e7e8e8" stop-opacity=".79" /><stop offset=".3" stop-color="#f2f2f2" stop-opacity=".88" /><stop offset=".36" stop-color="#f9f9f9" stop-opacity=".95" /><stop offset=".42" stop-color="#fdfdfd" stop-opacity=".99" /><stop offset=".5" stop-color="#fff" /><stop offset=".56" stop-color="#fdfdfd" stop-opacity=".98" /><stop offset=".62" stop-color="#f7f8f8" stop-opacity=".93" /><stop offset=".69" stop-color="#efefef" stop-opacity=".85" /><stop offset=".75" stop-color="#e2e3e3" stop-opacity=".74" /><stop offset=".82" stop-color="#d2d3d4" stop-opacity=".59" /><stop offset=".88" stop-color="#bec0c1" stop-opacity=".41" /><stop offset=".95" stop-color="#a8a9ac" stop-opacity=".2" /><stop offset="1" stop-color="#939598" stop-opacity="0" /></linearGradient></defs><g class="cls-7"><g id="Layer_2"><g id="Front"><path class="cls-15" d="m10.49,28.99c0,.76-.16,1.39-.47,1.9-.31.51-.72.92-1.22,1.24-.5.32-1.07.54-1.7.68-.63.14-1.27.21-1.91.21-.26,0-.56-.02-.92-.06-.36-.04-.72-.12-1.11-.23s-.76-.27-1.14-.47c-.38-.2-.72-.46-1.02-.77s-.54-.7-.73-1.15c-.19-.45-.28-.99-.28-1.61h3.25c0,.71.2,1.21.6,1.51.4.29.94.44,1.62.44.19,0,.39-.02.6-.07.21-.04.4-.12.57-.22.17-.11.32-.24.43-.42.12-.17.17-.39.17-.64,0-.21-.05-.39-.15-.52-.1-.14-.26-.26-.47-.37-.22-.11-.5-.21-.86-.32-.36-.11-.78-.23-1.28-.37-.48-.13-.95-.27-1.43-.42-.48-.14-.91-.34-1.29-.59-.38-.25-.7-.57-.94-.95-.24-.38-.37-.87-.37-1.47,0-.68.13-1.26.4-1.74.27-.48.62-.88,1.06-1.19.44-.31.94-.54,1.5-.69.56-.15,1.14-.22,1.74-.22.64,0,1.25.07,1.83.2.58.13,1.09.35,1.53.66.44.31.8.71,1.07,1.2.27.49.42,1.1.44,1.82h-3.08c.02-.27-.02-.5-.12-.69-.1-.19-.24-.36-.41-.48-.17-.13-.37-.22-.6-.27-.23-.06-.45-.08-.67-.08-.17,0-.34.02-.53.05-.19.03-.37.09-.53.17-.17.08-.3.19-.41.32-.11.14-.16.31-.16.52.01.26.12.46.32.62.21.16.47.3.81.42.33.12.71.22,1.12.32.42.09.84.2,1.27.31.43.12.86.27,1.27.43.42.17.79.38,1.11.64.32.26.58.58.77.97.19.38.29.85.29,1.41Z" /><path class="cls-15" d="m20,26.49c-.44.65-1.1,1.09-1.96,1.31v4.95h-3.25v-4.95c-1.76-.47-2.65-1.78-2.65-3.93v-3.11h3.25v2.86c0,.18,0,.37.02.59.02.22.06.42.12.61.07.19.17.35.3.47.13.13.32.19.57.19s.43-.06.57-.19c.13-.13.23-.29.3-.47.07-.19.11-.39.12-.61.02-.22.02-.41.02-.59v-2.86h3.25v3.11c0,1.1-.22,1.97-.67,2.62Z" /><path class="cls-15" d="m28.34,32.74v-7.88c0-.18,0-.37-.02-.59-.02-.22-.06-.42-.12-.61-.07-.19-.17-.35-.3-.47-.13-.13-.32-.19-.57-.19s-.43.06-.57.19c-.13.13-.23.29-.3.47-.07.19-.11.39-.12.61-.02.22-.02.41-.02.59v7.88h-3.25v-8.13c0-1.41.36-2.45,1.09-3.13.73-.68,1.78-1.02,3.17-1.02s2.49.35,3.2,1.05c.71.7,1.07,1.73,1.07,3.1v8.13h-3.25Z" /><path class="cls-15" d="m39.26,32.74v-4.73h-2.03v4.73h-3.25v-8.13c0-1.41.36-2.45,1.09-3.13.73-.68,1.78-1.02,3.17-1.02s2.49.35,3.2,1.05c.71.7,1.07,1.73,1.07,3.1v8.13h-3.25Zm0-7.88c0-.18,0-.37-.02-.59-.02-.22-.06-.42-.12-.61-.07-.19-.17-.35-.3-.47-.13-.13-.32-.19-.57-.19s-.43.06-.57.19c-.13.13-.23.29-.3.47-.07.19-.11.39-.12.61-.02.22-.02.41-.02.59v.62h2.03v-.62Z" /><path class="cls-15" d="m53.78,24.71c0,.7-.11,1.3-.34,1.82-.23.51-.54.94-.94,1.27-.4.34-.88.59-1.44.76-.56.17-1.17.25-1.84.25h-1.07v3.93h-3.25v-11.99h4.6c.78,0,1.44.12,1.98.37.54.25.99.57,1.32.95.34.38.59.81.74,1.27.16.47.23.92.23,1.37Zm-3.08.12c0-.3-.05-.54-.15-.72-.1-.18-.24-.31-.42-.41-.18-.09-.38-.16-.62-.19-.23-.03-.48-.05-.75-.05h-.62v2.83h.43c.27,0,.53-.02.78-.05.26-.03.48-.1.67-.2.19-.1.35-.25.47-.44.12-.19.18-.45.18-.77Z" /><path class="cls-15" d="m61.17,32.74v-7.88c0-.18,0-.37-.02-.59-.02-.22-.06-.42-.12-.61-.07-.19-.17-.35-.3-.47-.13-.13-.32-.19-.57-.19s-.43.06-.57.19c-.13.13-.23.29-.3.47-.07.19-.11.39-.12.61-.02.22-.02.41-.02.59v7.88h-3.25v-8.13c0-1.41.36-2.45,1.09-3.13.73-.68,1.78-1.02,3.17-1.02s2.49.35,3.2,1.05c.71.7,1.07,1.73,1.07,3.1v8.13h-3.25Z" /><path class="cls-15" d="m66.82,32.74v-11.99h8.51v2.71h-5.26v2.01h4.71v2.53h-4.71v2.01h5.43v2.71h-8.68Z" /><path class="cls-15" d="m82.55,23.46v9.27h-3.25v-9.27h-.35c-.4,0-.68.07-.85.2-.17.13-.25.39-.25.77l-2.1-1.12c0-.31.02-.62.07-.92.04-.31.14-.58.3-.82.16-.24.38-.44.68-.59.3-.15.71-.22,1.23-.22h8.04v2.71h-3.53Z" /><path class="cls-13" d="m36.89,20.51s1.26-.11,1.43-.03c0,0-1.34.36-1.02,2.72,0,0-.45.31-.41-2.68Z" /><path class="cls-12" d="m36.33,2.78s.58,1.58,6.94,5.21c1.42.81,5.74,4.31,6.36,5.1,0,0,.01,1.28-2,.55-2.02-.73-5.42-1.12-5.42-1.12,0,0-6.99-4.91-7.25-5.19-.25-.28-1.58-1.24-1.25-2.93.33-1.68,2.62-1.63,2.62-1.63Z" /><path class="cls-4" d="m36.3,2.78s.58,1.58,6.94,5.21c1.41.81,5.74,4.31,6.36,5.1,0,0,.01,1.28-2,.55-2.02-.73-5.42-1.12-5.42-1.12,0,0-7-4.91-7.25-5.19-.25-.28-1.58-1.24-1.25-2.93.33-1.68,2.62-1.63,2.62-1.63Z" /><path class="cls-9" d="m38.06,7.44c-3.82-2.11-3.04-2.75-3.04-2.75,0,0,.17-.88.39-1.8-.68.16-1.51.55-1.7,1.52-.33,1.68,1,2.65,1.25,2.93.25.28,7.25,5.19,7.25,5.19,0,0,2.72.32,4.74.91-1.34-.81-6.71-4.78-8.88-5.99Z" /><path class="cls-1" d="m53.89,1.18s-.14,5.17-8.55,4.21c-9.02-1.02-12.55-.01-10.32,1.99,0,0-3.77-2.11-1.5-5.5,1.34-1.99,3.45-1.97,5.97-1.82,0,0,8.21,1.09,14.41,1.12Z" /><path class="cls-11" d="m40.65,16.69s-4.37,1.3-3.41,6.49c0,.05-.06.08-.09.03-.34-.62-.8-1.71-1.11-2.65-.93-2.89,2.64-3.72,4.61-3.87Z" /><path class="cls-14" d="m40.65,16.69s-4.37,1.3-3.41,6.49c0,.05-.06.08-.09.03-.34-.62-1.09-2.14-1.15-3.05-.2-3.03,2.68-3.32,4.65-3.47Z" /><path class="cls-8" d="m50.04,16.25c1.16-1.45-.52-3.34-.52-3.34.54,1.64-3.55-.82-8.64-.36-3.62.33-4.8,3.01-4.8,3.01h0c-1.18,2.38-.03,4.96-.03,4.96,1.06-7.25,11.86-1.61,14-4.27Z" /><path class="cls-6" d="m50.04,16.25c1.23-1.42-.52-3.34-.52-3.34.54,1.64-3.55-.82-8.64-.36-3.62.33-4.8,3.01-4.8,3.01h0c-1.18,2.38-.03,4.96-.03,4.96,1.06-7.25,11.54-1.72,14-4.27Z" /><path class="cls-3" d="m42.84,2.39c9.56,1.27,11.05-1.21,11.05-1.21-5.57.06-14.41-1.12-14.41-1.12-2.63-.16-4.63-.18-5.97,1.82-2.27,3.38,1.5,5.5,1.5,5.5-4.2-2.67-2.05-6.3,7.83-4.99Z" /><path class="cls-2" d="m53.89,1.18h0s-1.48,2.48-11.05,1.21c-7.56-1-10.59.89-9.72,3.02.33.66.83,1.16,1.23,1.5.2.16.42.31.66.47-2.23-2,1.3-3.01,10.32-1.99,8.41.96,8.55-4.21,8.55-4.21Z" /><path class="cls-10" d="m48.4,15.32c1.72.2,1.79-.92,1.79-1.02-.2-.83-.67-1.38-.67-1.38.54,1.64-3.55-.82-8.64-.36-3.62.33-4.8,3.01-4.8,3.01h0c-1.18,2.38-.03,4.96-.03,4.96-2.56-8.57,10.49-5.42,12.36-5.21Z" /><path class="cls-5" d="m49.52,12.95s.47.55.67,1.38c0,.11-.07,1.22-1.79,1.02-1.86-.22-14.89-3.65-12.36,5.21,1.06-7.25,11.54-1.72,14-4.27,1.23-1.42-.52-3.34-.52-3.34Z" /></g></g></g></svg><svg id="Layer_2" xmlns="http://www.w3.org/2000/svg" xmlns:xlink="http://www.w3.org/1999/xlink" viewBox="0 0 287.66 92.31" height="92.31" width="287.66" x="0" y="33.02"><defs><style>.cls-1{fill:url(#Sfumatura_senza_nome_27);}.cls-2{fill:url(#linear-gradient-2);}.cls-3{fill:#fff;}.cls-4{fill:#009188;}.cls-5{fill:url(#Sfumatura_senza_nome_27-4);}.cls-6{fill:url(#linear-gradient-6);}.cls-7{fill:#3b363a;}.cls-8{fill:url(#linear-gradient-5);}.cls-9{fill:#2dbdb8;}.cls-10{fill:url(#Sfumatura_senza_nome_27-2);}.cls-11{fill:url(#linear-gradient-3);}.cls-12{fill:url(#linear-gradient);}.cls-13{fill:url(#Sfumatura_senza_nome_27-3);}.cls-14{fill:url(#linear-gradient-4);}</style><linearGradient id="Sfumatura_senza_nome_27" x1="0" y1="24.83" x2="82.59" y2="24.83" gradientUnits="userSpaceOnUse"><stop offset="0" stop-color="#2075bc" /><stop offset=".5" stop-color="#2bace2" /><stop offset="1" stop-color="#62c8d5" /></linearGradient><linearGradient id="Sfumatura_senza_nome_27-2" y1="50.5" x2="203.46" y2="50.5" xlink:href="#Sfumatura_senza_nome_27" /><linearGradient id="Sfumatura_senza_nome_27-3" x1="83.25" y1="48.68" x2="287.66" y2="48.68" xlink:href="#Sfumatura_senza_nome_27" /><linearGradient id="Sfumatura_senza_nome_27-4" x1="99.76" y1="64.33" x2="287.66" y2="64.33" xlink:href="#Sfumatura_senza_nome_27" /><linearGradient id="linear-gradient" x1="83.28" y1="53.77" x2="184.47" y2="53.77" gradientUnits="userSpaceOnUse"><stop offset="0" stop-color="#292562" /><stop offset=".5" stop-color="#2075bc" /><stop offset=".66" stop-color="#2072b9" /><stop offset=".78" stop-color="#2268b2" /><stop offset=".88" stop-color="#2458a6" /><stop offset=".98" stop-color="#284295" /><stop offset="1" stop-color="#2a3c90" /></linearGradient><linearGradient id="linear-gradient-2" x1="83.13" y1="54.79" x2="184.63" y2="54.79" xlink:href="#linear-gradient" /><linearGradient id="linear-gradient-3" x1="99.99" y1="50.59" x2="205.41" y2="50.59" xlink:href="#linear-gradient" /><linearGradient id="linear-gradient-4" x1="95.64" y1="47.94" x2="191.44" y2="47.94" xlink:href="#linear-gradient" /><linearGradient id="linear-gradient-5" x1="181.08" y1="56.1" x2="203.42" y2="56.1" xlink:href="#linear-gradient" /><linearGradient id="linear-gradient-6" x1="85" y1="48.34" x2="103.1" y2="48.34" xlink:href="#linear-gradient" /></defs><g id="Front"><path class="cls-3" d="m83.61,49.78c.11-.03.22-.05.33-.08-.2.04-.4.08-.61.12h.02s.25-.04.25-.04Z" /><path class="cls-3" d="m181.08,56.63c-30.4-8.84-59.5-9.51-77.98-8.62,29.69,8.67,58.81,9.47,77.98,8.62Z" /><path class="cls-7" d="m199.07,55.42c1.28-.23,2.55-.48,3.83-.73l-.41.07c-1.14.23-2.28.45-3.42.67Z" /><path class="cls-7" d="m83.35,49.82h-.02s-.09.01-.14.02c0,0,0,0,0,0l.15-.03Z" /><path class="cls-7" d="m83.25,49.8l-.66-.13c.19.06.38.11.57.17.03-.01.06-.02.09-.03Z" /><path class="cls-1" d="m82.59,49.67c-23.7-6.33-44.84-15.62-61.1-27.67C12.11,15.05,4.97,7.63,0,0v34.66s82.59,15.01,82.59,15.01Z" /><path class="cls-10" d="m0,39.78c52.36,33.02,138.39,39.51,203.46,13.55l-.59.1c-1.33.28-2.66.54-4,.8-5.11,1-10.15,1.81-15.08,2.47h-.02s0,0,0,0c-59.36,7.84-104.15-7.78-106.07-8.46-.04,0-.07.01-.07.01.02,0,.04-.01.06-.02-.04-.01-.06-.02-.06-.02.03-.01.07-.03.1-.04-.2-.06-.4-.12-.59-.18L0,31.69v8.1Z" /><path class="cls-9" d="m83.19,49.85s-.09.02-.13.03l.14-.02s0,0,0,0Z" /><path class="cls-9" d="m203.56,54.56s-.08.02-.12.02c.02,0,.03,0,.03,0,.03-.01.06-.02.09-.03Z" /><path class="cls-13" d="m83.97,49.7c.78-.19,1.54-.41,2.35-.56,4.8-.89,9.52-1.62,14.16-2.22l60.61-10.59,126.56,25.92c-52.64-30.35-139.03-36.31-204.41-12.45l.09.02c.21-.04.42-.08.63-.12Z" /><path class="cls-9" d="m83.19,49.85s.09-.02.14-.03l-.08-.02s-.06.02-.09.03c.01,0,.02,0,.04.01Z" /><path class="cls-5" d="m160.58,36.34l-60.81,10.59c42.63-5.5,78.07.22,95.99,4.31,28.03,6.15,53.18,16.67,71.66,31.2,4.08,3.21,7.7,6.51,10.88,9.88h9.37v-30s-.07-.04-.1-.06l-126.98-25.92Z" /><path class="cls-9" d="m83.16,49.84s-.07.02-.1.04c.04,0,.09-.02.13-.03-.01,0-.02,0-.04-.01Z" /><path class="cls-4" d="m83.61,49.78l-.25.04h.04c.07,0,.15-.03.22-.04Z" /><path class="cls-4" d="m83.59,49.87l1.41-.26c-.7.1-1.23.18-1.55.23l.14.03Z" /><path class="cls-12" d="m83.59,49.87l-.14-.03c-.07.01-.13.02-.18.03,31,9.14,66.86,11.96,101.19,7.77-1.13-.35-2.26-.69-3.39-1.02-19.17.85-48.29.05-77.98-8.62-8.74.42-15.09,1.19-18.1,1.61l-1.41.26Z" /><path class="cls-4" d="m186.41,57.4c4.25-.55,8.48-1.21,12.67-1.98,1.13-.21,2.27-.43,3.42-.67l-16.08,2.65Z" /><path class="cls-4" d="m203.48,54.56s-.03,0-.07.01c0,0,0,0,0,0,.02,0,.04,0,.06-.01Z" /><path class="cls-4" d="m83.35,49.82l-.15.03s.03,0,.05.01c.05-.01.09-.02.14-.03h-.04Z" /><path class="cls-2" d="m83.28,49.87c-.06.01-.11.02-.15.02,1.84.63,44.7,15.02,101.5,7.8-.05-.02-.11-.03-.16-.05-34.34,4.18-70.19,1.37-101.19-7.77Z" /><path class="cls-4" d="m83.2,49.85l-.14.02s.02,0,.06.02c.04,0,.09-.02.13-.03-.02,0-.03,0-.05-.01Z" /><path class="cls-4" d="m184.65,57.69c4.72-.6,9.53-1.35,14.43-2.27-4.19.77-8.42,1.43-12.67,1.98l-1.76.29Z" /><path class="cls-4" d="m90.07,48.69l5.57-1.01c-3.93.58-7.83,1.26-11.7,2.02-.11.03-.22.05-.33.08l6.46-1.09Z" /><path class="cls-11" d="m99.99,47.07c1.04.32,2.07.63,3.11.93,18.48-.89,47.59-.22,77.98,8.62,13.1-.58,23.54-2.93,24.33-3.06-.55-.19-6.78-1.62-13.97-3.34-28.8-6.61-60.79-7.15-91.45-3.16Z" /><path class="cls-4" d="m98.58,47.26c-.98.13-1.97.27-2.95.42l-5.57,1.01,8.51-1.43Z" /><path class="cls-4" d="m203.48,54.59s0,0,0,0c0,0,0,0-.01,0h.02Z" /><path class="cls-4" d="m202.9,54.69c.18-.04.37-.07.55-.11,0,0-.02,0-.03-.01-.31.06-.62.12-.93.19l.41-.07Z" /><path class="cls-4" d="m83.06,49.91s.03,0,.07-.01c0,0,0,0,0,0-.02,0-.04,0-.06.01Z" /><path class="cls-4" d="m184.63,57.69h.02s-.01,0-.02,0c0,0,0,0,0,0Z" /><path class="cls-4" d="m203.46,54.59s0,0,.01,0c0,0-.01,0-.03,0-.18.04-.37.07-.55.11l.56-.09Z" /><path class="cls-4" d="m83.94,49.7c3.87-.77,7.77-1.44,11.7-2.02l4.13-.75c-4.45.6-8.97,1.33-13.57,2.22-.78.15-1.5.37-2.26.56Z" /><path class="cls-14" d="m98.58,47.26l1.3-.22s.07.02.11.03c30.66-3.99,62.65-2.45,91.45,4.16-17.11-4.09-50.96-9.81-91.68-4.31l-4.13.75c.98-.15,1.96-.29,2.95-.42Z" /><path class="cls-4" d="m83.45,49.84c.32-.05.84-.13,1.55-.23l5.07-.92-6.46,1.09c-.07.02-.14.03-.22.05h.06Z" /><path class="cls-4" d="m83.39,49.83s-.09.02-.14.03c0,0,.02,0,.03,0,.05,0,.11-.02.18-.03h-.06Z" /><path class="cls-8" d="m184.47,57.64c.65-.08,1.29-.16,1.93-.24l16.08-2.65c.31-.06.62-.12.93-.19,0,0,0,0,0,0-.79.13-9.24,1.48-22.33,2.06,1.13.33,2.26.66,3.39,1.02Z" /><path class="cls-6" d="m85,49.62c3-.42,9.36-1.19,18.1-1.61-1.04-.3-2.07-.61-3.11-.93-.47.06-.94.12-1.41.19l-8.51,1.43-5.07.92Z" /><path class="cls-4" d="m83.25,49.86s-.08.02-.13.03c0,0,0,0,0,0,.03,0,.09-.01.15-.02,0,0-.02,0-.03,0Z" /><path class="cls-4" d="m184.47,57.64c.05.02.11.03.16.05,0,0,.01,0,.02,0l1.76-.29c-.64.08-1.29.16-1.93.24Z" /><path class="cls-4" d="m99.88,47.04l-1.3.22c.47-.06.94-.12,1.41-.19-.04-.01-.07-.02-.11-.03Z" /></g></svg></svg>